HIERARCHY
ROOT joint_0
{
	OFFSET 0.000000 0.000000 0.000000
	CHANNELS 6 Xposition Yposition Zposition Zrotation Yrotation Xrotation 
	JOINT joint_1
	{
		OFFSET 6.004005 -1.946999 100.587036
		CHANNELS 3 Zrotation Yrotation Xrotation
		JOINT joint_2
		{
			OFFSET -4.601006 -0.824997 91.925903
			CHANNELS 3 Zrotation Yrotation Xrotation
			JOINT joint_3
			{
				OFFSET -5.420998 -1.130005 91.774048
				CHANNELS 3 Zrotation Yrotation Xrotation
				JOINT joint_4
				{
					OFFSET 4.308998 -3.777992 123.473999
					CHANNELS 3 Zrotation Yrotation Xrotation
					JOINT joint_5
					{
						OFFSET 25.565002 -6.305008 79.437988
						CHANNELS 3 Zrotation Yrotation Xrotation
						End Site
						{
							OFFSET 0.000000 0.000000 0.000000
						}
					}
				}
				JOINT joint_6
				{
					OFFSET -1.750000 -28.655998 68.557983
					CHANNELS 3 Zrotation Yrotation Xrotation
					JOINT joint_7
					{
						OFFSET -17.692001 -116.544006 -17.244019
						CHANNELS 3 Zrotation Yrotation Xrotation
						JOINT joint_8
						{
							OFFSET 27.063004 -23.640991 -266.895020
							CHANNELS 3 Zrotation Yrotation Xrotation
							JOINT joint_9
							{
								OFFSET 40.722000 -15.761017 -232.488953
								CHANNELS 3 Zrotation Yrotation Xrotation
								End Site
								{
									OFFSET 0.000000 0.000000 0.000000
								}
							}
						}
					}
				}
				JOINT joint_10
				{
					OFFSET 6.593002 24.457001 69.892944
					CHANNELS 3 Zrotation Yrotation Xrotation
					JOINT joint_11
					{
						OFFSET 24.311996 114.920002 -19.872925
						CHANNELS 3 Zrotation Yrotation Xrotation
						JOINT joint_12
						{
							OFFSET 21.081001 15.319000 -268.037964
							CHANNELS 3 Zrotation Yrotation Xrotation
							JOINT joint_13
							{
								OFFSET 27.794006 -8.947001 -234.744080
								CHANNELS 3 Zrotation Yrotation Xrotation
								End Site
								{
									OFFSET 0.000000 0.000000 0.000000
								}
							}
						}
					}
				}
			}
		}
	}
	JOINT joint_14
	{
		OFFSET -6.627998 -80.520004 -98.790039
		CHANNELS 3 Zrotation Yrotation Xrotation
		JOINT joint_15
		{
			OFFSET -43.638000 -13.751999 -502.538971
			CHANNELS 3 Zrotation Yrotation Xrotation
			JOINT joint_16
			{
				OFFSET -39.532999 -9.912994 -398.071007
				CHANNELS 3 Zrotation Yrotation Xrotation
				JOINT joint_17
				{
					OFFSET 174.940004 -34.660995 -75.688002
					CHANNELS 3 Zrotation Yrotation Xrotation
					End Site
					{
						OFFSET 0.000000 0.000000 0.000000
					}
				}
			}
		}
	}
	JOINT joint_18
	{
		OFFSET 12.591003 79.842003 -98.765015
		CHANNELS 3 Zrotation Yrotation Xrotation
		JOINT joint_19
		{
			OFFSET -39.080002 -1.297001 -503.101013
			CHANNELS 3 Zrotation Yrotation Xrotation
			JOINT joint_20
			{
				OFFSET -51.570000 -0.514000 -396.815987
				CHANNELS 3 Zrotation Yrotation Xrotation
				JOINT joint_21
				{
					OFFSET 178.987999 -11.521999 -73.244003
					CHANNELS 3 Zrotation Yrotation Xrotation
					End Site
					{
						OFFSET 0.000000 0.000000 0.000000
					}
				}
			}
		}
	}
}
MOTION
Frames: 12
Frame Time: 0.016667
-1911.649658 989.158875 1095.208984 -0.014761 0.026516 -0.135880 0.590671 1.677539 0.500117 0.569511 -0.320956 -0.161396 0.599396 0.419975 0.143419 -0.045147 -2.880071 -0.604091 0.000000 0.000000 0.000000 4.987661 3.286423 1.072945 -0.482651 4.224618 0.268584 -0.145694 -2.051331 -1.586447 0.000000 0.000000 0.000000 -0.178885 -1.076337 2.242103 -0.074051 0.696218 -6.034484 0.927642 -0.940453 7.885439 0.000000 0.000000 0.000000 -0.913254 -1.011297 -2.673466 -1.377088 -0.260264 2.165274 -1.168335 1.049964 -0.295929 0.000000 0.000000 0.000000 0.255664 -3.163440 5.746153 0.753646 2.242553 -0.781407 0.618998 0.298907 0.269711 0.000000 0.000000 0.000000 
-1910.963623 988.950806 1095.188965 -0.076369 0.052024 -0.157701 0.673685 2.230740 0.503679 0.656144 -0.376502 -0.152973 0.687061 0.493727 0.138757 -0.100832 -3.432313 -0.582973 0.000000 0.000000 0.000000 5.415386 3.060153 1.011796 -0.439204 3.862208 1.473247 -0.533643 -0.829717 -3.247458 0.000000 0.000000 0.000000 -0.694540 -0.955344 2.379757 -0.001909 1.000811 -6.275796 0.958790 -1.699215 7.888123 0.000000 0.000000 0.000000 -0.898882 -0.993564 -2.689976 -1.372543 -0.272303 2.277357 -1.150370 0.968395 -0.304339 0.000000 0.000000 0.000000 0.272051 -3.138900 5.819786 0.781177 2.237136 -0.868500 0.634301 0.293110 0.275538 0.000000 0.000000 0.000000 
-1910.704834 988.433594 1095.282959 -0.178064 -0.009085 -0.190212 0.820262 3.146716 0.551211 0.809226 -0.480249 -0.112215 0.838784 0.610354 0.104479 -0.163164 -4.236169 -0.616859 0.000000 0.000000 0.000000 5.740412 2.052207 0.953898 -0.373016 2.543992 3.698819 -1.415378 2.527805 -6.436338 0.000000 0.000000 0.000000 -1.814754 -0.706075 2.139679 0.145130 1.390670 -6.144483 1.004799 -2.848795 7.841344 0.000000 0.000000 0.000000 -0.877318 -0.909455 -2.693428 -1.359840 -0.283358 2.422234 -1.120962 0.873567 -0.310435 0.000000 0.000000 0.000000 0.293114 -3.032731 5.944814 0.820774 2.222947 -1.005448 0.654750 0.287672 0.283453 0.000000 0.000000 0.000000 
-1909.516235 987.833984 1095.345947 -0.165924 0.269106 -0.181098 1.004300 3.611473 0.514409 1.003682 -0.526680 -0.035042 1.025960 0.647685 0.044833 -0.223736 -5.003206 -0.661693 0.000000 0.000000 0.000000 5.982306 1.222850 1.046941 -0.429442 1.505658 5.456290 -2.232613 5.247003 -9.120401 0.000000 0.000000 0.000000 -2.719566 -0.507684 1.921880 0.242590 1.685132 -6.001089 1.035708 -3.588779 7.855527 0.000000 0.000000 0.000000 -0.879934 -1.154355 -2.713519 -1.382399 -0.254812 2.524823 -1.130633 0.832340 -0.322774 0.000000 0.000000 0.000000 0.297167 -3.299428 6.002679 0.829181 2.269219 -1.067979 0.654505 0.333906 0.286278 0.000000 0.000000 0.000000 
-1906.365723 987.307495 1095.222046 -0.019662 1.357469 -0.110718 1.255286 2.868403 0.298086 1.266197 -0.440036 0.090991 1.271360 0.516052 -0.051384 -0.279120 -5.560930 -0.683471 0.000000 0.000000 0.000000 6.135495 1.429078 1.040018 -0.493776 1.641692 6.127636 -2.403528 5.230286 -9.730907 0.000000 0.000000 0.000000 -2.719976 -0.518337 2.042594 0.183194 1.714887 -6.111841 1.023101 -3.206280 8.023618 0.000000 0.000000 0.000000 -0.895237 -2.181559 -2.757582 -1.442195 -0.211354 2.537726 -1.191411 0.967092 -0.322302 0.000000 0.000000 0.000000 0.301242 -4.391360 5.924162 0.806103 2.329617 -0.946550 0.646049 0.543255 0.296170 0.000000 0.000000 0.000000 
-1901.765747 986.772461 1094.963013 0.200238 3.095396 0.004693 1.584689 1.231460 -0.059487 1.607468 -0.250596 0.255641 1.587096 0.242319 -0.190908 -0.332455 -6.021588 -0.703121 0.000000 0.000000 0.000000 6.195981 2.319021 0.959083 -0.515392 2.515919 6.241088 -2.138458 3.465623 -9.106797 0.000000 0.000000 0.000000 -2.113263 -0.682027 2.388009 0.015212 1.551885 -6.379028 0.983690 -2.010124 8.342993 0.000000 0.000000 0.000000 -0.908204 -3.842341 -2.816220 -1.520538 -0.170839 2.487767 -1.283073 1.272662 -0.301239 0.000000 0.000000 0.000000 0.315664 -6.133842 5.749641 0.770358 2.368746 -0.687544 0.641353 0.924668 0.318484 0.000000 0.000000 0.000000 
-1896.352417 986.171814 1094.854004 0.890042 4.614585 0.256337 1.777613 -0.259762 -0.520788 1.816588 -0.068609 0.388690 1.773981 -0.041656 -0.313684 -0.378990 -6.292063 -0.692806 0.000000 0.000000 0.000000 6.180546 3.218908 0.908690 -0.540615 3.423154 6.168774 -1.809942 1.415918 -8.349065 0.000000 0.000000 0.000000 -1.464944 -0.812641 2.780617 -0.150542 1.432188 -6.670172 0.940657 -0.882083 8.646469 0.000000 0.000000 0.000000 -1.068438 -5.259114 -2.943422 -1.742795 0.093568 2.356960 -1.508139 1.415862 -0.369725 0.000000 0.000000 0.000000 0.193986 -7.835698 5.430272 0.590348 2.802221 -0.414965 0.503226 1.168818 0.278007 0.000000 0.000000 0.000000 
-1890.530640 985.342773 1095.150024 2.526842 5.320803 0.806145 1.621971 -0.932920 -1.154278 1.684106 0.049137 0.456451 1.629478 -0.218753 -0.370574 -0.418659 -6.290849 -0.610212 0.000000 0.000000 0.000000 6.101948 3.666777 0.848437 -0.583503 3.855201 6.190420 -1.654564 0.121391 -8.077655 0.000000 0.000000 0.000000 -1.165040 -0.766474 3.098641 -0.238322 1.523970 -6.849947 0.903217 -0.384725 8.732858 0.000000 0.000000 0.000000 -1.548085 -5.801461 -3.243810 -2.268452 0.707541 2.132847 -2.008177 1.151283 -0.637452 0.000000 0.000000 0.000000 -0.224031 -9.111520 4.835936 0.108025 4.035483 -0.200881 0.077100 1.018096 0.096096 0.000000 0.000000 0.000000 
-1884.072876 984.301819 1095.744995 4.962027 5.509201 1.608914 1.199083 -1.156189 -1.957510 1.289349 0.148728 0.479197 1.228457 -0.338402 -0.383564 -0.455269 -6.056903 -0.450442 0.000000 0.000000 0.000000 5.961228 3.912597 0.765112 -0.631477 4.082550 6.148701 -1.540597 -0.964985 -7.915559 0.000000 0.000000 0.000000 -1.011014 -0.615108 3.406969 -0.287985 1.735899 -6.954616 0.864469 -0.183010 8.662433 0.000000 0.000000 0.000000 -2.295884 -5.789782 -3.690430 -3.055743 1.584216 1.848466 -2.749554 0.642820 -1.057160 0.000000 0.000000 0.000000 -0.878282 -10.200113 3.974159 -0.626998 5.902157 0.028110 -0.576044 0.643520 -0.191135 0.000000 0.000000 0.000000 
-1876.938110 983.645691 1096.329956 7.258028 5.360942 2.207031 0.829835 -1.152346 -2.424512 0.932896 0.218443 0.448542 0.871448 -0.396165 -0.372207 -0.474171 -5.675009 -0.283778 0.000000 0.000000 0.000000 5.743533 4.089805 0.685745 -0.698175 4.266863 5.888762 -1.425754 -2.113319 -7.757265 0.000000 0.000000 0.000000 -0.909253 -0.412061 3.559764 -0.307307 1.955094 -6.944995 0.830050 -0.234052 8.532673 0.000000 0.000000 0.000000 -2.999332 -5.588097 -3.971462 -3.787675 2.874511 1.585113 -3.419250 -0.040479 -1.479546 0.000000 0.000000 0.000000 -1.492482 -10.907319 3.269175 -1.308602 7.852470 0.310119 -1.156409 0.230208 -0.450483 0.000000 0.000000 0.000000 
-1869.101929 983.865967 1096.661987 8.767823 4.984714 2.268361 0.749977 -1.021169 -2.194364 0.836358 0.237618 0.392527 0.779245 -0.385532 -0.344315 -0.459064 -5.195918 -0.177968 0.000000 0.000000 0.000000 5.411887 4.276860 0.652264 -0.811083 4.517992 5.243820 -1.289616 -3.570059 -7.558647 0.000000 0.000000 0.000000 -0.832606 -0.185467 3.434884 -0.295631 2.119181 -6.815800 0.802217 -0.618191 8.387898 0.000000 0.000000 0.000000 -3.437031 -5.368445 -3.860295 -4.235115 4.660127 1.380066 -3.789393 -0.882806 -1.802839 0.000000 0.000000 0.000000 -1.876049 -11.087604 3.041982 -1.718745 9.594474 0.674844 -1.451545 -0.182324 -0.594343 0.000000 0.000000 0.000000 
-1860.570923 984.739563 1096.857056 9.843905 4.331408 1.960852 0.832472 -0.704654 -1.485377 0.888355 0.211812 0.332843 0.840020 -0.318018 -0.283267 -0.419028 -4.585783 -0.095342 0.000000 0.000000 0.000000 4.973251 4.432125 0.667301 -0.977321 4.792486 4.242449 -1.154583 -5.248311 -7.346793 0.000000 0.000000 0.000000 -0.803316 0.087205 3.099777 -0.257582 2.273568 -6.590633 0.772217 -1.335023 8.164634 0.000000 0.000000 0.000000 -3.730336 -5.001472 -3.486052 -4.521993 6.867449 1.214787 -3.978520 -1.830331 -2.066880 0.000000 0.000000 0.000000 -2.134513 -10.824482 3.126479 -1.975544 11.323839 1.120223 -1.566814 -0.629068 -0.667752 0.000000 0.000000 0.000000 
